name rise36.2859peak64.2979fall75.1499.mot
datacolumns 19
datarows 20
range 10.63662900000000 10.66829300000000
endheader
time	ground_force1_vx	ground_force1_vy	ground_force1_vz	ground_force1_px	ground_force1_py	ground_force1_pz	ground_force2_vx	ground_force2_vy	ground_force2_vz	ground_force2_px	ground_force2_py	ground_force2_pz	ground_torque1_x	ground_torque1_y	ground_torque1_z	ground_torque2_x	ground_torque2_y	ground_torque2_z	
10.63662900000000	-38.40902000000000	799.48210800000004	59.69342100000000	0.17603800000000	0.00000000000000	0.09880500000000	-1.15749200000000	3.34621900000000	0.67992300000000	0.00000000000000	0.00000000000000	0.00000000000000	0.00000000000000	28.03251300000000	0.00000000000000	0.00000000000000	0.18908000000000	0.00000000000000	
10.63829500000000	-38.43446200000000	797.34143800000004	59.57260400000000	0.17547000000000	0.00000000000000	0.09873500000000	-1.84202200000000	6.71723700000000	1.14616600000000	0.00000000000000	0.00000000000000	0.00000000000000	0.00000000000000	27.88673400000000	0.00000000000000	0.00000000000000	0.33261600000000	0.00000000000000	
10.63995800000000	-38.47421900000000	795.08269600000006	59.42962700000000	0.17488600000000	0.00000000000000	0.09866400000000	-2.61343800000000	10.82774200000000	1.68541400000000	0.00000000000000	0.00000000000000	0.00000000000000	0.00000000000000	27.73715500000000	0.00000000000000	0.00000000000000	0.50125600000000	0.00000000000000	
10.64162900000000	-38.52880500000000	792.70512599999995	59.26396400000000	0.17428900000000	0.00000000000000	0.09859100000000	-3.44728700000000	15.64470700000000	2.28472700000000	0.00000000000000	0.00000000000000	0.00000000000000	0.00000000000000	27.58383200000000	0.00000000000000	0.00000000000000	0.69173500000000	0.00000000000000	
10.64328900000000	-38.59869100000000	790.20801400000005	59.07512500000000	0.17367700000000	0.00000000000000	0.09851500000000	-4.31318100000000	21.10373400000000	2.92694600000000	0.00000000000000	0.00000000000000	0.00000000000000	0.00000000000000	27.42682900000000	0.00000000000000	0.00000000000000	0.89946900000000	0.00000000000000	
10.64495800000000	-38.68430200000000	787.59069099999999	58.86266100000000	0.17305200000000	0.00000000000000	0.09843700000000	-5.17674900000000	27.11407600000000	3.59181100000000	0.37610500000000	0.00000000000000	-0.08828100000000	0.00000000000000	27.26621500000000	0.00000000000000	0.00000000000000	2.01274200000000	0.00000000000000	
10.64663000000000	-38.78601500000000	784.85252600000001	58.62616300000000	0.17241400000000	0.00000000000000	0.09835700000000	-6.00208400000000	33.56645800000000	4.25742800000000	0.37840300000000	0.00000000000000	-0.08946100000000	0.00000000000000	27.10206700000000	0.00000000000000	0.00000000000000	2.41773800000000	0.00000000000000	
10.64829200000000	-38.90415700000000	781.99292300000002	58.36526600000000	0.17176500000000	0.00000000000000	0.09827300000000	-6.75439300000000	40.34266100000000	4.90192000000000	0.38055800000000	0.00000000000000	-0.09050000000000	0.00000000000000	26.93446700000000	0.00000000000000	0.00000000000000	2.82178400000000	0.00000000000000	
10.64996000000000	-39.03900000000000	779.01131999999996	58.07964800000000	0.17110400000000	0.00000000000000	0.09818700000000	-7.40246800000000	47.32548800000000	5.50501100000000	0.38260400000000	0.00000000000000	-0.09142100000000	0.00000000000000	26.76350300000000	0.00000000000000	0.00000000000000	3.21412400000000	0.00000000000000	
10.65162800000000	-39.19076200000000	775.90718400000003	57.76903200000000	0.17043300000000	0.00000000000000	0.09809800000000	-7.92068400000000	54.40777800000000	6.04935700000000	0.38456900000000	0.00000000000000	-0.09224400000000	0.00000000000000	26.58926800000000	0.00000000000000	0.00000000000000	3.58527700000000	0.00000000000000	
10.65328900000000	-39.35960300000000	772.68000900000004	57.43319100000000	0.16975200000000	0.00000000000000	0.09800500000000	-8.29031700000000	61.49950800000000	6.52148900000000	0.38647000000000	0.00000000000000	-0.09298500000000	0.00000000000000	26.41185900000000	0.00000000000000	0.00000000000000	3.92756700000000	0.00000000000000	
10.65495900000000	-39.54562100000000	769.32931499999995	57.07194400000000	0.16906400000000	0.00000000000000	0.09790900000000	-8.50013200000000	68.53245600000000	6.91229800000000	0.38832200000000	0.00000000000000	-0.09365500000000	0.00000000000000	26.23137400000000	0.00000000000000	0.00000000000000	4.23544200000000	0.00000000000000	
10.65662600000000	-39.74885400000000	765.85464300000001	56.68516200000000	0.16836800000000	0.00000000000000	0.09780900000000	-8.54626600000000	75.46234500000000	7.21710400000000	0.39013800000000	0.00000000000000	-0.09426500000000	0.00000000000000	26.04791600000000	0.00000000000000	0.00000000000000	4.50555900000000	0.00000000000000	
10.65829400000000	-39.96927300000000	762.25555599999996	56.27276600000000	0.16766500000000	0.00000000000000	0.09770500000000	-8.43153800000000	82.26866000000000	7.43534000000000	0.39192500000000	0.00000000000000	-0.09482200000000	0.00000000000000	25.86159000000000	0.00000000000000	0.00000000000000	4.73668500000000	0.00000000000000	
10.65996300000000	-40.20678400000000	758.53163300000006	55.83472700000000	0.16695800000000	0.00000000000000	0.09759700000000	-8.16431900000000	88.95252900000000	7.56995800000000	0.39369000000000	0.00000000000000	-0.09533500000000	0.00000000000000	25.67249800000000	0.00000000000000	0.00000000000000	4.92943700000000	0.00000000000000	
10.66162600000000	-40.46122400000000	754.68247299999996	55.37107000000000	0.16624700000000	0.00000000000000	0.09748500000000	-7.75715500000000	95.53319399999999	7.62664700000000	0.39543900000000	0.00000000000000	-0.09580700000000	0.00000000000000	25.48074500000000	0.00000000000000	0.00000000000000	5.08591700000000	0.00000000000000	
10.66329700000000	-40.73236100000000	750.70769099999995	54.88187400000000	0.16553300000000	0.00000000000000	0.09736900000000	-7.22527600000000	102.04360200000001	7.61296600000000	0.39717400000000	0.00000000000000	-0.09624400000000	0.00000000000000	25.28643300000000	0.00000000000000	0.00000000000000	5.20928700000000	0.00000000000000	
10.66495900000000	-41.01989100000000	746.60691499999996	54.36726900000000	0.16481800000000	0.00000000000000	0.09724800000000	-6.58514800000000	108.52563499999999	7.53746600000000	0.39889800000000	0.00000000000000	-0.09665000000000	0.00000000000000	25.08966400000000	0.00000000000000	0.00000000000000	5.30332800000000	0.00000000000000	
10.66663100000000	-41.32343600000000	742.37979099999995	53.82744000000000	0.16410300000000	0.00000000000000	0.09712300000000	-5.85317700000000	115.02542900000000	7.40889600000000	0.40061400000000	0.00000000000000	-0.09702800000000	0.00000000000000	24.89053300000000	0.00000000000000	0.00000000000000	5.37203100000000	0.00000000000000	
10.66829300000000	-41.64254600000000	738.02597500000002	53.26262600000000	0.16339000000000	0.00000000000000	0.09699300000000	-5.04463700000000	121.58914500000000	7.23552000000000	0.40232100000000	0.00000000000000	-0.09738100000000	0.00000000000000	24.68913500000000	0.00000000000000	0.00000000000000	5.41922600000000	0.00000000000000	
